#N canvas 1 58 1918 1020 10;
#X obj 236 171 spigot;
#X obj 236 442 outlet;
#X obj 458 96 r switchChanged;
#X obj 458 122 sel \$1;
#X msg 458 143 1, f 4;
#X msg 493 144 0;
#X obj 302 237 f;
#X obj 302 348 t b;
#X msg 299 369 1;
#X msg 269 369 0;
#X obj 236 409 spigot;
#X obj 419 123 t b b;
#X obj 275 282 moses;
#X obj 302 320 moses;
#X obj 329 284 + 10;
#X obj 302 259 - 10;
#X text 147 265 in between;
#X obj 368 193 loadbang;
#X obj 368 237 * 0.05;
#X obj 235 86 inlet;
#X obj 236 206 phianalogscale \$2 \$3;
#X obj 368 214 f \$3;
#X connect 0 0 20 0;
#X connect 2 0 3 0;
#X connect 2 0 11 0;
#X connect 3 0 4 0;
#X connect 3 1 5 0;
#X connect 4 0 0 1;
#X connect 5 0 0 1;
#X connect 6 0 14 0;
#X connect 6 0 15 0;
#X connect 7 0 8 0;
#X connect 8 0 10 1;
#X connect 9 0 10 1;
#X connect 10 0 1 0;
#X connect 11 0 6 0;
#X connect 11 1 9 0;
#X connect 12 1 13 0;
#X connect 13 0 7 0;
#X connect 14 0 13 1;
#X connect 15 0 12 1;
#X connect 17 0 21 0;
#X connect 18 0 14 1;
#X connect 18 0 15 1;
#X connect 19 0 0 0;
#X connect 20 0 6 1;
#X connect 20 0 10 0;
#X connect 20 0 12 0;
#X connect 21 0 18 0;
