#N canvas 661 166 450 414 10;
#X obj 30 90 spigot;
#X obj 130 19 r switchch\$1;
#X obj 30 112 phianalogscale \$3 \$4;
#X obj 89 351 outlet;
#X obj 217 106 sel 0;
#X msg 217 128 0;
#X obj 217 149 change;
#X msg 254 128 1;
#X obj 220 173 outlet;
#X obj 30 18 r sliderCH\$2;
#X obj 251 3 r switchChanged;
#X obj 252 25 sel \$1;
#X msg 249 54 1;
#X msg 287 56 0;
#X obj 166 53 f;
#X obj 257 78 b;
#X obj 58 136 f;
#X obj 169 231 t b;
#X msg 166 252 1;
#X msg 129 250 0;
#X obj 89 318 spigot;
#X obj 196 40 t b b;
#X obj 68 185 moses;
#X obj 100 215 moses;
#X obj 128 193 + 10;
#X obj 93 164 - 10;
#X text 7 317 in between;
#X obj 389 215 loadbang;
#X obj 302 294 * 0.05;
#X obj 293 226 f \$4;
#X connect 0 0 2 0;
#X connect 0 0 4 0;
#X connect 1 0 14 1;
#X connect 2 0 16 1;
#X connect 2 0 20 0;
#X connect 2 0 22 0;
#X connect 4 0 5 0;
#X connect 4 1 7 0;
#X connect 5 0 6 0;
#X connect 6 0 8 0;
#X connect 7 0 6 0;
#X connect 9 0 0 0;
#X connect 10 0 11 0;
#X connect 10 0 21 0;
#X connect 11 0 12 0;
#X connect 11 1 13 0;
#X connect 12 0 15 0;
#X connect 13 0 0 1;
#X connect 14 0 0 1;
#X connect 15 0 14 0;
#X connect 16 0 24 0;
#X connect 16 0 25 0;
#X connect 17 0 18 0;
#X connect 18 0 20 1;
#X connect 19 0 20 1;
#X connect 20 0 3 0;
#X connect 21 0 16 0;
#X connect 21 1 19 0;
#X connect 22 1 23 0;
#X connect 23 0 17 0;
#X connect 24 0 23 1;
#X connect 25 0 22 1;
#X connect 27 0 29 0;
#X connect 28 0 24 1;
#X connect 28 0 25 1;
#X connect 29 0 28 0;
