#N canvas 873 113 1012 605 10;
#X declare -path patches;
#X declare -path pdmtl;
#X declare -lib zexy;
#X declare -lib comport;
#X declare -path mtl;
#X declare -lib ggee/shell;
#X declare -path ./;
#X declare -lib iemlib1;
#X declare -lib iemlib2;
#X declare -path /home/psc/Documents/Pd/externals/hcs;
#X declare -path /home/psc/Documents/Pd/externals/creb;
#X declare -path /home/psc/Documents/Pd/externals/oscx;
#X declare -path /home/psc/Documents/Pd/externals/motex;
#X declare -path ./bin/verbkit;
#X declare -path ./bin/crip;
#X declare -path ./bin/dyna;
#X declare -path ./bin/slic;
#X declare -path /home/psc/Documents/Pd/externals/ml.lib;
#N canvas 1 58 1234 681 alfaloop 0;
#X obj 57 32 alfaloop;
#X restore 23 43 pd alfaloop;
#N canvas 1 62 1128 628 abl_link~ 0;
#X msg 750 106 tempo \$1;
#X msg 564 106 resolution \$1;
#X msg 660 106 reset \$1 \$2;
#X obj 660 85 pack f f;
#X floatatom 594 232 5 0 0 1 beat_time - -;
#X floatatom 566 253 5 0 0 1 phase - -;
#X msg 435 206 \; pd dsp 1;
#X floatatom 539 281 5 0 0 1 step - -;
#X floatatom 622 210 5 0 0 1 tempo - -;
#X obj 421 86 tgl 15 0 empty empty empty 17 7 0 10 -262144 -1 -1 0
1;
#X obj 539 169 abl_link~ 1 0 4 134;
#X floatatom 750 87 5 0 0 2 tempo - -;
#X floatatom 705 66 5 0 0 2 quantum - -;
#X floatatom 660 66 5 0 0 2 beat - -;
#X floatatom 564 86 5 0 0 2 resolution - -;
#X text 25 344 Link's beat time can sometimes go backwards. When this
happens \, the step outlet will fall silent until the beat time moves
forward again. The phase and beat outlets will output raw values from
Link so that patches can implement their own handling of time going
backwards.;
#X text 25 251 The creation arguments \, all optional \, specify the
resolution (default 1) and the initial beat time (default 0) \, as
well as the quantum (default 4) and tempo (default 120) \, which will
be replaced by the session tempo if the Link instance is already connected.
The Link external will perform a quantized launch on creation.;
#X msg 421 107 connect \$1;
#X text 25 424 The Link external emits events as soon as DSP is enabled
in Pd. It will only connect with other Link instances \, however \,
if you send it the message [connect 1(.;
#X floatatom 647 300 5 0 0 0 - - -;
#X obj 647 278 r #abl_link_num_peers;
#X text 25 24 abl_link~: Ableton Link external;
#X floatatom 650 191 5 0 0 1 is_playing - -;
#X obj 504 86 tgl 15 0 empty empty empty 17 7 0 10 -262144 -1 -1 0
1;
#X msg 504 106 play \$1;
#X text 25 52 abl_link~ is a Pd external that integrates Ableton Link
into Pd. It has five outlets \, which emit the index of the current
step (at the beginning of each step) \, the current phase and beat
time on each DSP tick \, the tempo on tempo changes \, as well as the
play state. Phase and beat time are Link concepts. The purpose of the
step feature is to generate events in Pd at a given rate (measured
in steps per beat).;
#N canvas 213 167 446 262 offset_vs_audio_latency 0;
#X text 37 29 Ableton defines its grid time as the moment when the
sound should hit the speakers. This means connected apps must \, on
their own \, account for audio driver latency and any other calculation
latencies.;
#X text 37 94 Pure Data does not currently make the audio driver latency
available to objects. When you run abl_link~ against other apps \,
then \, Pure Data may sound some milliseconds late.;
#X text 37 149 abl_link~ responds to an [offset( message by shifting
its timebase earlier by the given number of milliseconds. At worst
\, then \, users may sync with non-Pd apps (or with Pd running under
different audio settings) by manually setting the offset. It's easy
to tune by hand/ear.;
#X restore 119 483 pd offset_vs_audio_latency;
#X floatatom 820 87 5 0 0 0 - - -;
#X msg 820 106 offset \$1;
#X text 25 158 abl_link~ responds to six methods \, for connecting
with other Link instances \, for setting the resolution of the step
outlet (in steps per beat) \, the tempo (in beats per minute) \, the
play state (on or off) \, the latency offset \, and for resetting the
beat time and quantum by having Link perform a quantized launch.;
#X connect 0 0 10 0;
#X connect 1 0 10 0;
#X connect 2 0 10 0;
#X connect 3 0 2 0;
#X connect 9 0 17 0;
#X connect 10 0 7 0;
#X connect 10 1 5 0;
#X connect 10 2 4 0;
#X connect 10 3 8 0;
#X connect 10 4 22 0;
#X connect 11 0 0 0;
#X connect 12 0 3 1;
#X connect 13 0 3 0;
#X connect 14 0 1 0;
#X connect 17 0 10 0;
#X connect 20 0 19 0;
#X connect 23 0 24 0;
#X connect 24 0 10 0;
#X connect 27 0 28 0;
#X connect 28 0 10 0;
#X restore 24 65 pd abl_link~;
#N canvas 1 58 450 300 init 0;
#X obj 221 163 declare -path patches;
#X obj 49 72 loadbang;
#X msg 49 100 \; pd dsp 1 \;;
#N canvas 584 247 450 300 readyBurst 0;
#X obj 289 150 switch~;
#X obj 180 16 loadbang;
#X msg 288 117 1;
#X obj 165 269 dac~ 1 2;
#X obj 214 144 t b;
#X msg 216 173 0;
#X obj 297 58 t b b;
#X obj 109 200 osc~ 150;
#X obj 167 51 delay 1100;
#X obj 291 21 bng 15 250 50 0 empty empty empty 17 7 0 10 -262144 -1
-1;
#X obj 216 117 delay 80;
#X obj 89 122 line 72 10;
#X msg 100 84 216 80;
#X msg 335 89 72;
#X obj 216 217 noise~;
#X obj 130 233 *~ 0.06;
#X obj 210 243 *~ 0.009;
#X connect 1 0 8 0;
#X connect 2 0 0 0;
#X connect 4 0 5 0;
#X connect 5 0 0 0;
#X connect 6 0 12 0;
#X connect 6 0 10 0;
#X connect 6 1 2 0;
#X connect 6 1 13 0;
#X connect 7 0 15 0;
#X connect 8 0 6 0;
#X connect 9 0 6 0;
#X connect 10 0 4 0;
#X connect 11 0 7 0;
#X connect 12 0 11 0;
#X connect 13 0 11 0;
#X connect 14 0 16 0;
#X connect 15 0 3 0;
#X connect 15 0 3 1;
#X connect 16 0 3 1;
#X connect 16 0 3 0;
#X restore 49 163 pd readyBurst;
#N canvas 1 58 1110 601 cpufreq 0;
#X obj 31 361 shell;
#X msg 31 92 sudo sh -c "echo performance > /sys/devices/system/cpu/cpu0/cpufreq/scaling_governor"
;
#X obj 31 21 loadbang;
#X obj 31 42 delay 100;
#X obj 31 67 b;
#X obj 431 67 b;
#X obj 71 167 b;
#X obj 471 167 b;
#X obj 431 42 delay 200;
#X obj 71 142 delay 300;
#X obj 471 142 delay 400;
#X msg 431 92 sudo sh -c "echo performance > /sys/devices/system/cpu/cpu1/cpufreq/scaling_governor"
;
#X msg 71 192 sudo sh -c "echo performance > /sys/devices/system/cpu/cpu2/cpufreq/scaling_governor"
;
#X msg 471 192 sudo sh -c "echo performance > /sys/devices/system/cpu/cpu3/cpufreq/scaling_governor"
;
#X connect 1 0 0 0;
#X connect 2 0 3 0;
#X connect 2 0 8 0;
#X connect 2 0 9 0;
#X connect 2 0 10 0;
#X connect 3 0 4 0;
#X connect 4 0 1 0;
#X connect 5 0 11 0;
#X connect 6 0 12 0;
#X connect 7 0 13 0;
#X connect 8 0 5 0;
#X connect 9 0 6 0;
#X connect 10 0 7 0;
#X connect 11 0 0 0;
#X connect 12 0 0 0;
#X connect 13 0 0 0;
#X restore 50 194 pd cpufreq;
#X obj 222 245 declare -path pdmtl;
#X obj 668 34 declare -lib zexy;
#X obj 668 54 declare -lib comport;
#X obj 222 225 declare -path mtl;
#X obj 668 74 declare -lib ggee/shell;
#X obj 222 265 declare -path ./;
#X obj 668 94 declare -lib iemlib1;
#X obj 668 115 declare -lib iemlib2;
#X obj 221 33 declare -path /home/psc/Documents/Pd/externals/hcs;
#X obj 221 53 declare -path /home/psc/Documents/Pd/externals/creb;
#X obj 221 73 declare -path /home/psc/Documents/Pd/externals/oscx;
#X obj 221 93 declare -path /home/psc/Documents/Pd/externals/motex
;
#X obj 222 355 declare -path ./bin/verbkit;
#X obj 222 295 declare -path ./bin/crip;
#X obj 222 315 declare -path ./bin/dyna;
#X obj 222 335 declare -path ./bin/slic;
#X obj 221 113 declare -path /home/psc/Documents/Pd/externals/ml.lib
;
#X connect 1 0 2 0;
#X restore 20 19 pd init;
#N canvas 1 77 450 300 cpu 0;
#X obj 118 168 cputime;
#X obj 118 28 loadbang;
#X obj 118 112 metro 1000;
#X msg 118 56 1;
#X floatatom 118 84 0 0 0 0 - - -;
#X obj 118 140 t b b;
#X obj 118 228 * 0.1;
#X obj 118 197 int;
#X text 163 84 <-- on/off;
#X text 51 284 CPU load in percent;
#X obj 215 259 outlet;
#X obj 273 211 s cpu;
#X connect 0 0 7 0;
#X connect 1 0 3 0;
#X connect 2 0 5 0;
#X connect 3 0 4 0;
#X connect 4 0 2 0;
#X connect 5 0 0 0;
#X connect 5 1 0 1;
#X connect 6 0 10 0;
#X connect 6 0 11 0;
#X connect 7 0 6 0;
#X restore 921 26 pd cpu;
#X obj 921 48 nbx 3 18 -1e+37 1e+37 0 0 empty empty empty 0 -8 0 18
-45076 -262144 -1 49 256;
#N canvas 1 58 450 300 core 0;
#X obj 114 1081 hip~ 5;
#X obj 214 1081 hip~ 5;
#X obj 156 1114 dac~ 1 2;
#X obj 147 288 catch~ fl;
#X obj 221 288 catch~ fr;
#N canvas 846 339 277 206 limitr 0;
#X obj 26 14 inlet~;
#X obj 111 14 inlet~;
#X obj 26 136 *~;
#X obj 111 136 *~;
#X obj 26 45 *~ 1;
#X obj 111 46 *~ 1;
#X obj 26 168 outlet~;
#X obj 111 166 outlet~;
#X obj 167 14 loadbang;
#X obj 111 107 z~ 64;
#X obj 26 107 z~ 64;
#X obj 126 76 limiter~ 1 1;
#X msg 167 46 limit 98;
#X connect 0 0 4 0;
#X connect 1 0 5 0;
#X connect 2 0 6 0;
#X connect 3 0 7 0;
#X connect 4 0 10 0;
#X connect 4 0 11 0;
#X connect 5 0 9 0;
#X connect 5 0 11 1;
#X connect 8 0 12 0;
#X connect 9 0 3 0;
#X connect 10 0 2 0;
#X connect 11 0 2 1;
#X connect 11 0 3 1;
#X connect 12 0 11 0;
#X restore 110 979 pd limitr;
#X obj 112 1009 *~;
#X obj 154 1016 *~;
#X obj 365 889 line~;
#X obj 364 865 pack 0 50;
#X obj 463 802 loadbang;
#X msg 463 824 1;
#N canvas 466 369 1140 709 fxeq 0;
#X obj 84 308 outlet~;
#X obj 85 29 inlet~;
#X obj 138 29 inlet~;
#X obj 138 308 outlet~;
#X obj 212 125 sjfx 1 0;
#X obj 45 180 crossfade~ 2;
#X msg 429 247 \$1 5;
#X obj 429 274 line~;
#X obj 433 220 change;
#X msg 438 191 0;
#X obj 436 144 r thereminreset;
#X obj 436 167 t b;
#X obj 537 143 r korgroll;
#X obj 537 187 t b;
#X msg 538 211 1;
#X connect 1 0 4 0;
#X connect 1 0 5 0;
#X connect 2 0 4 1;
#X connect 2 0 5 1;
#X connect 4 0 5 2;
#X connect 4 1 5 3;
#X connect 5 0 0 0;
#X connect 5 1 3 0;
#X connect 6 0 7 0;
#X connect 7 0 5 4;
#X connect 8 0 4 2;
#X connect 9 0 8 0;
#X connect 9 0 6 0;
#X connect 10 0 11 0;
#X connect 11 0 9 0;
#X connect 12 0 13 0;
#X connect 13 0 14 0;
#X connect 14 0 8 0;
#X connect 14 0 6 0;
#X restore 155 326 pd fxeq;
#X obj 443 891 r volumexy;
#X obj 443 915 unpack f f;
#X obj 192 375 r pan;
#X obj 145 399 mix.pan~;
#X obj 326 378 r pan;
#X obj 277 401 mix.pan~;
#X obj 641 975 tgl 15 0 rcomp@switch rcomp@switchR switch 17 7 0 10
-1 -262144 -1 1 1;
#X obj 572 1019 input.slider_ gain rcomp@gainR rcomp@gain;
#X obj 641 950 loadbang;
#X msg 558 956 loadbang;
#X obj 262 340 loadbang;
#X msg 262 359 64;
#X obj 96 1127 pvu~;
#X obj 96 1157 s bspvuoutl;
#X obj 222 1110 pvu~;
#X obj 222 1140 s bspvuoutr;
#X obj 274 544 eq3~ /id eq2;
#X obj 133 568 *~;
#X obj 168 568 *~;
#X obj 168 473 line~;
#X obj 169 449 pack 0 50;
#X obj 274 516 *~;
#X obj 309 516 *~;
#X obj 339 480 line~;
#X obj 338 456 pack 0 50;
#X text 48 402 dry/wet eq;
#X obj 594 398 r /eq2/high;
#X obj 457 400 r /eq2/mid;
#X obj 524 400 r /eq2/low;
#X obj 471 457 expr ($f1 + $f2 + $f3);
#X obj 471 434 f, f 8;
#X obj 541 438 b;
#X obj 595 430 b;
#X obj 472 480 sel 3;
#X obj 472 506 t b b;
#X msg 504 532 1;
#X msg 472 533 0;
#X obj 534 482 t b b;
#X msg 534 509 1;
#X msg 566 508 0;
#X obj 319 572 *~ 1.4;
#X obj 268 572 *~ 1.4;
#X obj 537 536 loadbang;
#X obj 261 836 r korgmute;
#X obj 114 719 revDelay;
#X obj 265 701 r korgrevdelay;
#X obj 365 698 r korgrevdelays;
#X obj 253 655 loadbang;
#X msg 270 683 0;
#X msg 558 981 10;
#N canvas 1107 717 766 580 pitch 0;
#X obj 286 23 fiddle~ 2048 1 20 5;
#X obj 295 297 ftom;
#X obj 292 328 s \$0-thereminpitchmidi;
#X obj 212 293 moses 1;
#X obj 154 332 osc~;
#X obj 208 337 phasor~;
#X obj 107 442 crossfade~ 2;
#X obj 89 79 inlet~;
#X obj 139 79 inlet~;
#X obj 100 525 outlet~;
#X obj 150 525 outlet~;
#X msg 324 500 \$1 5;
#X obj 324 527 line~;
#X obj 382 472 inlet;
#X obj 204 316 moses 2000;
#X obj 218 267 mtof;
#X obj 132 378 *~ 0.8;
#X obj 200 396 *~ 0.3;
#X obj 33 18 r thereminreset;
#X msg 26 63 0;
#X obj 563 52 r korgoctova;
#X floatatom 566 83 5 0 0 0 - - -;
#X obj 402 177 +;
#X msg 540 155 0;
#X msg 550 175 12;
#X msg 560 195 24;
#X msg 570 215 36;
#X msg 590 255 12;
#X msg 580 235 24;
#X msg 600 275 0;
#X msg 610 305 -12;
#X msg 620 325 -24;
#X msg 630 344 -36;
#X obj 564 108 sel 0 1 2 3 4 5 6 7 8 9;
#X obj 79 50 r pitchreset;
#X connect 0 0 22 0;
#X connect 1 0 2 0;
#X connect 3 1 1 0;
#X connect 3 1 14 0;
#X connect 4 0 16 0;
#X connect 5 0 17 0;
#X connect 6 0 9 0;
#X connect 6 1 10 0;
#X connect 7 0 6 0;
#X connect 7 0 0 0;
#X connect 8 0 6 1;
#X connect 8 0 0 0;
#X connect 11 0 12 0;
#X connect 12 0 6 4;
#X connect 13 0 11 0;
#X connect 14 0 5 0;
#X connect 14 0 4 0;
#X connect 15 0 3 0;
#X connect 16 0 6 2;
#X connect 16 0 6 3;
#X connect 18 0 19 0;
#X connect 19 0 11 0;
#X connect 19 0 22 1;
#X connect 20 0 21 0;
#X connect 20 0 33 0;
#X connect 22 0 15 0;
#X connect 23 0 22 1;
#X connect 24 0 22 1;
#X connect 25 0 22 1;
#X connect 26 0 22 1;
#X connect 27 0 22 1;
#X connect 28 0 22 1;
#X connect 29 0 22 1;
#X connect 30 0 22 1;
#X connect 31 0 22 1;
#X connect 32 0 22 1;
#X connect 33 0 23 0;
#X connect 33 1 24 0;
#X connect 33 2 25 0;
#X connect 33 3 26 0;
#X connect 33 4 28 0;
#X connect 33 5 27 0;
#X connect 33 6 29 0;
#X connect 33 7 30 0;
#X connect 33 8 31 0;
#X connect 33 9 32 0;
#X connect 34 0 19 0;
#X restore 115 777 pd pitch;
#X obj 257 782 r korgpitch;
#X obj 255 734 loadbang;
#X msg 255 757 0;
#X obj 555 829 r iopot1r;
#X obj 557 849 phiscale 0 1023 0 1;
#X obj 556 869 change;
#X obj 610 670 phiscale 0 1023 0 1;
#X obj 609 690 change;
#X obj 608 650 r iopot3r;
#X obj 767 713 s /eq2/mid;
#X obj 605 724 s /eq2/low;
#X obj 911 707 s /eq2/high;
#X obj 761 660 phiscale 0 1023 0 1;
#X obj 760 680 change;
#X obj 759 640 r iopot4r;
#X obj 911 660 phiscale 0 1023 0 1;
#X obj 910 680 change;
#X obj 909 640 r iopot5r;
#N canvas 1 58 1383 1020 fxeq 0;
#X obj 66 38 inlet~;
#X obj 216 38 inlet~;
#X obj 66 248 outlet~;
#X obj 216 248 outlet~;
#X obj 216 115 sjfx 3 0;
#X obj 73 188 crossfade~ 2;
#X msg 516 175 \$1 5;
#X obj 516 202 line~;
#X obj 450 151 change;
#X msg 455 122 0;
#X obj 453 75 r thereminreset;
#X obj 453 98 t b;
#X obj 554 118 t b;
#X msg 555 142 1;
#X obj 554 74 r korghold;
#X text 264 261 Crossfade: 0-1;
#X connect 0 0 4 0;
#X connect 0 0 5 0;
#X connect 1 0 4 1;
#X connect 1 0 5 1;
#X connect 4 0 5 2;
#X connect 4 1 5 3;
#X connect 5 0 2 0;
#X connect 5 1 3 0;
#X connect 6 0 7 0;
#X connect 7 0 5 4;
#X connect 8 0 4 2;
#X connect 9 0 8 0;
#X connect 9 0 6 0;
#X connect 10 0 11 0;
#X connect 11 0 9 0;
#X connect 12 0 13 0;
#X connect 13 0 8 0;
#X connect 13 0 6 0;
#X connect 14 0 12 0;
#X restore 115 833 pd fxeq;
#X obj 108 909 fx.compressor~ @id rcomp;
#X obj 572 1047 input.slider_ release rcomp@releaseR rcomp@release
;
#X obj 572 1064 input.slider_ attack rcomp@attackR rcomp@attack;
#X obj 572 1081 input.slider_ threshold rcomp@thresholdR rcomp@threshold
;
#X obj 572 1098 input.slider_ ratio rcomp@ratioR rcomp@ratio;
#X obj 1018 1009 hsl 128 15 1 10 0 0 empty empty empty -2 -8 0 10 -262144
-1 -1 12700 1;
#X obj 1014 1031 s rcomp@ratio;
#X obj 1018 1059 hsl 128 15 -60 0 0 0 empty empty empty -2 -8 0 10
-262144 -1 -1 12700 1;
#X obj 1014 1081 s rcomp@threshold;
#X obj 1188 1009 hsl 128 15 5 3000 0 0 empty empty empty -2 -8 0 10
-262144 -1 -1 21 1;
#X obj 1188 1059 hsl 128 15 1 300 0 0 empty empty empty -2 -8 0 10
-262144 -1 -1 0 1;
#X obj 1184 1031 s rcomp@release;
#X obj 1184 1081 s rcomp@attack;
#X obj 1331 1058 loadbang;
#X msg 1331 1081 1;
#X obj 1154 959 loadbang;
#X msg 1154 982 10, f 2;
#X obj 935 1013 loadbang;
#X msg 934 1036 0;
#X obj 115 1045 *~;
#X obj 157 1052 *~;
#X obj 354 1026 line~;
#X obj 353 1002 pack 0 50;
#X obj 358 953 r psvolume;
#X connect 0 0 25 0;
#X connect 0 0 2 0;
#X connect 1 0 27 0;
#X connect 1 0 2 1;
#X connect 3 0 12 0;
#X connect 4 0 12 1;
#X connect 5 0 6 0;
#X connect 5 1 7 0;
#X connect 6 0 102 0;
#X connect 7 0 103 0;
#X connect 8 0 7 1;
#X connect 8 0 6 1;
#X connect 9 0 8 0;
#X connect 10 0 11 0;
#X connect 11 0 9 0;
#X connect 12 0 16 0;
#X connect 12 1 18 0;
#X connect 13 0 14 0;
#X connect 14 1 9 0;
#X connect 15 0 16 1;
#X connect 16 0 30 0;
#X connect 16 0 34 0;
#X connect 17 0 18 1;
#X connect 18 1 31 0;
#X connect 18 1 35 0;
#X connect 21 0 19 0;
#X connect 22 0 62 0;
#X connect 23 0 24 0;
#X connect 24 0 16 1;
#X connect 24 0 18 1;
#X connect 25 0 26 0;
#X connect 27 0 28 0;
#X connect 29 0 54 0;
#X connect 29 1 53 0;
#X connect 30 0 57 0;
#X connect 31 0 57 1;
#X connect 32 0 31 1;
#X connect 32 0 30 1;
#X connect 33 0 32 0;
#X connect 34 0 29 0;
#X connect 35 0 29 1;
#X connect 36 0 35 1;
#X connect 36 0 34 1;
#X connect 37 0 36 0;
#X connect 39 0 42 2;
#X connect 39 0 45 0;
#X connect 40 0 42 0;
#X connect 40 0 43 1;
#X connect 41 0 42 1;
#X connect 41 0 44 0;
#X connect 42 0 46 0;
#X connect 43 0 42 0;
#X connect 44 0 43 0;
#X connect 45 0 43 0;
#X connect 46 0 47 0;
#X connect 46 1 50 0;
#X connect 47 0 49 0;
#X connect 47 1 48 0;
#X connect 48 0 33 0;
#X connect 49 0 37 0;
#X connect 50 0 51 0;
#X connect 50 1 52 0;
#X connect 51 0 37 0;
#X connect 52 0 33 0;
#X connect 53 0 57 1;
#X connect 54 0 57 0;
#X connect 55 0 48 0;
#X connect 56 0 9 0;
#X connect 57 0 63 0;
#X connect 57 1 63 1;
#X connect 58 0 57 2;
#X connect 59 0 57 3;
#X connect 60 0 61 0;
#X connect 61 0 57 3;
#X connect 63 0 82 0;
#X connect 63 1 82 1;
#X connect 64 0 63 2;
#X connect 65 0 66 0;
#X connect 66 0 63 2;
#X connect 67 0 68 0;
#X connect 68 0 69 0;
#X connect 69 0 9 0;
#X connect 70 0 71 0;
#X connect 71 0 74 0;
#X connect 72 0 70 0;
#X connect 76 0 77 0;
#X connect 77 0 73 0;
#X connect 78 0 76 0;
#X connect 79 0 80 0;
#X connect 80 0 75 0;
#X connect 81 0 79 0;
#X connect 82 0 83 0;
#X connect 82 1 83 1;
#X connect 83 0 5 0;
#X connect 83 1 5 1;
#X connect 88 0 89 0;
#X connect 90 0 91 0;
#X connect 92 0 94 0;
#X connect 93 0 95 0;
#X connect 96 0 97 0;
#X connect 97 0 93 0;
#X connect 98 0 99 0;
#X connect 99 0 92 0;
#X connect 99 0 88 0;
#X connect 100 0 101 0;
#X connect 101 0 90 0;
#X connect 102 0 0 0;
#X connect 103 0 1 0;
#X connect 104 0 103 1;
#X connect 104 0 102 1;
#X connect 105 0 104 0;
#X connect 106 0 105 0;
#X restore 25 89 pd core;
#X connect 3 0 4 0;
