#N canvas 1 58 450 300 12;
#X obj 86 115 f;
#X obj 126 136 t b b f;
#X obj 228 105 input.double.click 175;
#X msg 247 135 0;
#X obj 122 47 inlet;
#X obj 126 203 outlet;
#X obj 179 204 outlet;
#X obj 235 206 outlet;
#X obj 125 92 route \$1;
#X obj 171 54 inlet;
#X connect 0 0 1 0;
#X connect 1 0 5 0;
#X connect 1 1 6 0;
#X connect 1 2 7 0;
#X connect 2 0 3 0;
#X connect 3 0 1 0;
#X connect 4 0 8 0;
#X connect 8 0 0 0;
#X connect 8 0 2 0;
#X connect 9 0 0 1;
