#N canvas 814 237 879 507 12;
#X msg 119 63 set dog ferret;
#X msg 117 90 set mouse banana;
#X obj 205 162 oscparse;
#X obj 97 161 print packet;
#X text 295 126 creation arguments are OSC address;
#X text 163 -3 OSC messages with numbers and symbols. Except as shown
below the message will contain 'float' and 'string' data.;
#X msg 367 239 disconnect;
#X obj 359 266 netsend -u -b;
#X obj 360 165 list prepend send;
#X obj 360 190 list trim;
#X obj 205 187 print reassembled;
#X text 462 239 don't send;
#X text 249 63 set message to change OSC address;
#X text 555 214 send as UDP;
#X msg 368 215 connect localhost 9951;
#X msg 105 34 set loop-add 2 333;
#X msg 591 318 send /sl/-3/hit record;
#X msg 545 65 record;
#X obj 460 107 oscformat sl -3 hit;
#X connect 0 0 18 0;
#X connect 1 0 18 0;
#X connect 2 0 10 0;
#X connect 6 0 7 0;
#X connect 8 0 9 0;
#X connect 9 0 7 0;
#X connect 14 0 7 0;
#X connect 15 0 18 0;
#X connect 17 0 18 0;
#X connect 18 0 3 0;
#X connect 18 0 8 0;
#X connect 18 0 2 0;
