#N canvas 1 58 1918 1020 10;
#X obj 236 171 spigot;
#X obj 236 442 outlet;
#X obj 458 96 r switchChanged;
#X obj 458 122 sel \$1;
#X msg 458 143 1, f 4;
#X msg 493 144 0;
#X obj 419 123 t b b;
#X obj 235 86 inlet;
#X connect 0 0 1 0;
#X connect 2 0 3 0;
#X connect 2 0 6 0;
#X connect 3 0 4 0;
#X connect 3 1 5 0;
#X connect 4 0 0 1;
#X connect 5 0 0 1;
#X connect 7 0 0 0;
