#N canvas 1114 160 804 718 12;
#X declare -path ~/Documents/Pd/externals/iemnet;
#X declare -path ~/Documents/Pd/externals/tof;
#X declare -path ~/Documents/Pd/mtl/mtl;
#X declare -path ~/Documents/Pd/externals;
#X declare -path ~/Documents/Pd/externals/zexy;
#X floatatom 158 142 3 0 0 0 - - -;
#X floatatom 185 142 3 0 0 0 - - -;
#X floatatom 212 142 3 0 0 0 - - -;
#X floatatom 239 142 3 0 0 0 - - -;
#X text 115 141 from;
#X text 32 16 udpreceive receives bytes over a udp connection.;
#X floatatom 267 142 5 0 0 0 - - -;
#X obj 158 116 unpack 0 0 0 0 0;
#N canvas 3 45 450 300 get.info 0;
#X text 29 31 NOTE outlet #2 is for compatibility with mrpeach's net
objects. you can get all info (and more) via outlet #3 as well.;
#X obj 40 95 inlet outlet#3;
#X obj 40 119 route address;
#X floatatom 190 177 3 0 0 0 - - -;
#X floatatom 217 177 3 0 0 0 - - -;
#X floatatom 244 177 3 0 0 0 - - -;
#X floatatom 271 177 3 0 0 0 - - -;
#X text 147 176 from;
#X floatatom 299 177 5 0 0 0 - - -;
#X obj 190 151 unpack 0 0 0 0 0;
#X obj 35 213 route port;
#X floatatom 197 245 5 0 0 0 - - -;
#X text 236 244 listening port;
#X connect 1 0 2 0;
#X connect 2 0 9 0;
#X connect 2 1 10 0;
#X connect 9 0 3 0;
#X connect 9 1 4 0;
#X connect 9 2 5 0;
#X connect 9 3 6 0;
#X connect 9 4 8 0;
#X connect 10 0 11 0;
#X restore 317 111 pd get.info;
#X msg 302 229 disconnect;
#X obj 276 445 tgl 15 0 empty empty connected 20 7 0 8 -24198 -241291
-1 1 1;
#X text 270 167 use this port for sending;
#X obj 276 422 udpsend;
#X obj 107 91 udpreceive 3333;
#X obj 430 34 declare -path ~/Documents/Pd/externals/iemnet;
#X obj 427 50 declare -path ~/Documents/Pd/externals/tof;
#X obj 427 81 declare -path ~/Documents/Pd/mtl/mtl;
#X obj 65 228 asciiToPd;
#X obj 63 255 print ac;
#X obj 437 110 declare -path ~/Documents/Pd/externals;
#X obj 435 7 declare -path ~/Documents/Pd/externals/zexy;
#X obj 590 155 zexy;
#X obj 333 373 pdToAscii;
#X msg 340 314 1;
#X msg 382 316 2;
#X text 338 287 looper number;
#X msg 421 314 3;
#X msg 463 316 4;
#X text 519 289 rec on;
#X text 585 292 rec off;
#X msg 524 316 5;
#X msg 584 316 6;
#X msg 524 376 7;
#X msg 584 376 8;
#X text 519 349 dub on;
#X text 585 352 dub off;
#X msg 276 198 connect 192.168.2.108 65381;
#X connect 7 0 0 0;
#X connect 7 1 1 0;
#X connect 7 2 2 0;
#X connect 7 3 3 0;
#X connect 7 4 6 0;
#X connect 9 0 12 0;
#X connect 12 0 10 0;
#X connect 13 0 17 0;
#X connect 13 1 7 0;
#X connect 13 2 8 0;
#X connect 17 0 18 0;
#X connect 22 0 12 0;
#X connect 23 0 22 0;
#X connect 24 0 22 0;
#X connect 26 0 22 0;
#X connect 27 0 22 0;
#X connect 30 0 22 0;
#X connect 31 0 22 0;
#X connect 32 0 22 0;
#X connect 33 0 22 0;
#X connect 36 0 12 0;
